<svg xmlns="http://www.w3.org/2000/svg" enable-background="new 0 0 72 72" viewBox="0 0 72 72" id="instagram"><switch><g><path d="M20,10c-5.5,0-10,4.5-10,10v32c0,5.5,4.5,10,10,10h32c5.5,0,10-4.5,10-10V20c0-5.5-4.5-10-10-10H20z M36,52
			c-2.2,0-4.3-0.4-6.2-1.3c-1.9-0.8-3.6-2-5.1-3.4c-1.5-1.5-2.6-3.2-3.4-5.1c-0.8-2-1.3-4.1-1.3-6.2c0-2.2,0.4-4.3,1.3-6.2
			c0.8-1.9,2-3.6,3.4-5.1c1.5-1.5,3.2-2.6,5.1-3.4c2-0.8,4.1-1.3,6.2-1.3c2.2,0,4.3,0.4,6.2,1.3c1.9,0.8,3.6,2,5.1,3.4
			c1.5,1.5,2.6,3.2,3.4,5.1c0.8,2,1.3,4.1,1.3,6.2c0,2.2-0.4,4.3-1.3,6.2c-0.8,1.9-2,3.6-3.4,5.1c-1.5,1.5-3.2,2.6-5.1,3.4
			C40.3,51.6,38.2,52,36,52z M36,26c-5.5,0-10,4.5-10,10c0,5.5,4.5,10,10,10c5.5,0,10-4.5,10-10C46,30.5,41.5,26,36,26z M54,21
			c-1.7,0-3-1.3-3-3s1.3-3,3-3h0c1.7,0,3,1.3,3,3S55.7,21,54,21z M52,68H20c-8.8,0-16-7.2-16-16V20c0-8.8,7.2-16,16-16h32
			c8.8,0,16,7.2,16,16v32C68,60.8,60.8,68,52,68z"></path></g></switch></svg>