<svg xmlns="http://www.w3.org/2000/svg" xmlns:xlink="http://www.w3.org/1999/xlink" width="100" height="100" viewBox="0 0 100 100">
  <defs>
    <style>
      .cls-1, .cls-4, .cls-8 {
        fill: none;
      }

      .cls-2 {
        opacity: 0.05;
        fill: url(#linear-gradient);
      }

      .cls-3, .cls-5, .cls-6, .cls-9 {
        fill: #fff;
      }

      .cls-4, .cls-5, .cls-6, .cls-8 {
        stroke: #2d2d2d;
        stroke-miterlimit: 10;
      }

      .cls-4, .cls-5 {
        stroke-linecap: round;
      }

      .cls-4, .cls-5, .cls-6, .cls-7, .cls-8, .cls-9 {
        stroke-width: 0.7px;
      }

      .cls-7 {
        fill: #474747;
      }

      .cls-7, .cls-9 {
        stroke: #707070;
      }

      .cls-10 {
        fill: #ff8e93;
        opacity: 0.5;
        mix-blend-mode: multiply;
        isolation: isolate;
      }
    </style>
    <linearGradient id="linear-gradient" x1="0.5" x2="0.5" y2="1" gradientUnits="objectBoundingBox">
      <stop offset="0" stop-color="#1778f2"/>
      <stop offset="1" stop-color="#f40009"/>
    </linearGradient>
  </defs>
  <g id="Group_124995" data-name="Group 124995" transform="translate(-216 -2175)">
    <rect id="Rectangle_10368" data-name="Rectangle 10368" class="cls-1" width="100" height="100" transform="translate(216 2175)"/>
    <g id="Group_124194" data-name="Group 124194">
      <g id="Group_124189" data-name="Group 124189" transform="translate(-0.296 0.811)">
        <g id="Group_124146" data-name="Group 124146" transform="translate(0 188)">
          <path id="Path_228174" data-name="Path 228174" class="cls-2" d="M32.3,83.491A105.79,105.79,0,0,1,17.2,70.917,105.57,105.57,0,0,1,4.909,56.1,17.251,17.251,0,0,1,0,44.2,16.783,16.783,0,0,1,4.909,32.3,144.539,144.539,0,0,1,32.3,4.909,17.263,17.263,0,0,1,44.2,0,16.781,16.781,0,0,1,56.1,4.909a164.255,164.255,0,0,1,13.841,12.23A164.608,164.608,0,0,1,83.491,32.3,17.24,17.24,0,0,1,88.4,44.2a16.782,16.782,0,0,1-4.909,11.9A163.679,163.679,0,0,1,69.255,71.955,164.629,164.629,0,0,1,56.1,83.491a17.386,17.386,0,0,1-7.239,4.259,16.564,16.564,0,0,1-4.664.65,17.462,17.462,0,0,1-5.792-1.133A18.7,18.7,0,0,1,32.3,83.491Z" transform="translate(221.375 1992)"/>
        </g>
        <g id="Group_124170" data-name="Group 124170" transform="translate(219.597 2213.808)">
          <path id="Path_229163" data-name="Path 229163" class="cls-3" d="M391.626,102.279l2.549,4.426-2.1,3.081-7.479-2.857,1.681-3.389Z" transform="translate(-384.294 -81.791)"/>
          <path id="Path_229164" data-name="Path 229164" class="cls-3" d="M391.014,109.643l-1.991-6.791a25.99,25.99,0,0,1,5.093-.293c2.626.111,4.177.585,10.188,1.933,1.844.412,3.341.737,4.273.936l33.137-6.674a36.917,36.917,0,0,0,9.251-2.869,46.412,46.412,0,0,0,10.069-6.674,82.383,82.383,0,0,0,7.9-7.2c.065,3.065,7.036-6.17,7.086,7.2,2.984,18.32-2.255,7.674-2.183,11.049-4.444,1.1-14.234,3.86-19.95,6.515A85.459,85.459,0,0,0,437.324,116.9a15.5,15.5,0,0,1-8.489,5.035,15.165,15.165,0,0,1-4.274.176c-4.5-.424-6.616-2.495-11.3-4.917-2.533-1.311-5.455-2.3-11.3-4.275C397.559,111.433,393.795,110.369,391.014,109.643Z" transform="translate(-384.246 -82.009)"/>
          <path id="Path_229165" data-name="Path 229165" class="cls-4" d="M416.32,106.1a119.069,119.069,0,0,1-15.221-2.557c-4.4-1.042-8.349-2.256-12.851-.625-.8.289-3.956,1.434-3.951,2.932.007,2.075,6.064,3.43,11.811,4.991,21.686,5.892,26.189,13.852,34.269,10.48.305-.127-.044.005,10.813-6.986,3.993-2.571,6.266-4.035,7.195-4.616,4.214-2.638,10.99-6.046,21.835-8.858" transform="translate(-384.297 -81.806)"/>
          <path id="Path_229166" data-name="Path 229166" class="cls-5" d="M423.69,110.783a32.878,32.878,0,0,0-7.05-2.62c-5.5-1.35-8.865-.643-9.731-2.433-.682-1.409.391-3.934,2.183-5.3,4.645-3.548,11.318,2.814,17.092-.749a16.26,16.26,0,0,1,4.783-2.454,12.5,12.5,0,0,1,9.628,1.019c2.312,1.134,8.921-.789,28.387-15.192" transform="translate(-384.056 -81.998)"/>
        </g>
        <g id="Group_124173" data-name="Group 124173" transform="translate(240.596 2189.754)">
          <path id="Path_229167" data-name="Path 229167" class="cls-6" d="M408.167,79.327c.087-1.486,1.369-2.564,2.353-3.278,9.461-6.849,17.646-6.974,17.646-6.974a30.509,30.509,0,0,1,18.908,7.479,4.086,4.086,0,0,1,1.68,2.857,4.36,4.36,0,0,1-1.428,3.025,26.683,26.683,0,0,1-8.4,6.051,27.042,27.042,0,0,1-9.832,2.1,26.435,26.435,0,0,1-10.5-2.1,26.753,26.753,0,0,1-8.571-5.715C408.981,81.732,408.09,80.642,408.167,79.327Z" transform="translate(-405.039 -58.095)"/>
          <g id="Group_124171" data-name="Group 124171" transform="translate(12.876 10.98)">
            <circle id="Ellipse_51469" data-name="Ellipse 51469" class="cls-7" cx="10.714" cy="10.714" r="10.714"/>
            <circle id="Ellipse_51470" data-name="Ellipse 51470" class="cls-8" cx="10.714" cy="10.714" r="10.714"/>
          </g>
          <g id="Group_124172" data-name="Group 124172" transform="translate(19.458 17.143)">
            <circle id="Ellipse_51471" data-name="Ellipse 51471" class="cls-9" cx="4.202" cy="4.202" r="4.202"/>
            <circle id="Ellipse_51472" data-name="Ellipse 51472" class="cls-8" cx="4.202" cy="4.202" r="4.202"/>
          </g>
          <path id="Path_229168" data-name="Path 229168" class="cls-4" d="M409.209,72.138a7.147,7.147,0,0,1-4.136-6.611" transform="translate(-405.072 -58.133)"/>
          <path id="Path_229169" data-name="Path 229169" class="cls-4" d="M417.591,67.592a7.177,7.177,0,0,1-2.8-6.5" transform="translate(-404.968 -58.181)"/>
          <path id="Path_229170" data-name="Path 229170" class="cls-4" d="M427.648,66.167a20.361,20.361,0,0,0,0-7.955" transform="translate(-404.829 -58.212)"/>
          <path id="Path_229171" data-name="Path 229171" class="cls-4" d="M437.514,68.256a7.454,7.454,0,0,0,4.033-6.386" transform="translate(-404.723 -58.173)"/>
          <path id="Path_229172" data-name="Path 229172" class="cls-4" d="M446.271,72.347a6.444,6.444,0,0,0,4.705-5.378" transform="translate(-404.628 -58.118)"/>
        </g>
        <path id="Path_229173" data-name="Path 229173" class="cls-10" d="M431.427,93.884c.284,1.274,1.047,4.7-.964,7.469-2.764,3.808-8.419,3.132-9.176,3.03-4.2-.564-10.39-3.863-10.5-10.14a10.32,10.32,0,0,1,10.14-10.5C427.392,83.631,430.627,90.286,431.427,93.884Z" transform="translate(-164.415 2131.817)"/>
      </g>
    </g>
  </g>
</svg>
